<?xml version="1.0" encoding="iso-8859-1"?>
<!-- Uploaded to: SVG Repo, www.svgrepo.com, Generator: SVG Repo Mixer Tools -->
<svg height="800px" width="800px" version="1.1" id="Layer_1" xmlns="http://www.w3.org/2000/svg" xmlns:xlink="http://www.w3.org/1999/xlink" 
	 viewBox="0 0 512.001 512.001" xml:space="preserve">
<path style="fill:#5286FA;" d="M505.183,239.546l-58.182-58.182c-6.654-6.658-16.669-8.645-25.363-5.046
	c-8.696,3.603-14.367,12.088-14.367,21.501v34.909H279.273v-128h34.909c9.413,0,17.898-5.671,21.501-14.367
	c3.601-8.696,1.61-18.707-5.046-25.363L272.456,6.817c-9.087-9.089-23.824-9.089-32.912,0l-58.182,58.182
	c-6.656,6.656-8.647,16.666-5.046,25.363c3.603,8.696,12.089,14.367,21.501,14.367h34.911v128h-128v-34.909
	c0-9.413-5.671-17.9-14.367-21.501c-8.698-3.601-18.708-1.61-25.363,5.046L6.817,239.546c-9.089,9.089-9.089,23.824,0,32.912
	l58.182,58.182c4.453,4.453,10.403,6.817,16.462,6.817c2.998,0,6.021-0.58,8.901-1.772c8.696-3.603,14.367-12.089,14.367-21.501
	v-34.911h128v128h-34.909c-9.413,0-17.9,5.671-21.501,14.367c-3.601,8.696-1.61,18.707,5.046,25.363l58.182,58.182
	c4.543,4.544,10.499,6.816,16.455,6.816s11.913-2.271,16.455-6.817l58.182-58.182c6.656-6.656,8.647-16.666,5.046-25.363
	c-3.603-8.696-12.088-14.367-21.501-14.367h-34.909V279.274h128v34.909c0,9.413,5.669,17.9,14.367,21.501
	c2.878,1.193,5.904,1.772,8.901,1.772c6.056,0,12.009-2.365,16.46-6.817l58.182-58.182
	C514.274,263.369,514.274,248.634,505.183,239.546z"/>
</svg>